<svg version="1.1" xmlns="http://www.w3.org/2000/svg">
  <defs>

    <!--
      Selected country flags' SVG path data extracted (but not modified) from
      Twitter Color Emoji Font (https://github.com/eosrei/twemoji-color-font).

      Copyright: Joe Loughry; Terence Eden; Twitter, Inc.; Brad Erickson
      License: Creative Commons Attribution 4.0 International (http://creativecommons.org/licenses/by/4.0/)
    -->

    <symbol id="at" viewBox="0 0 36 36">
      <path fill="#EEE" d="M0 13h36v10H0z"/>
      <path fill="#ED2939" d="M32 5H4C1.791 5 0 6.791 0 9v4h36V9c0-2.209-1.791-4-4-4zM4 31h28c2.209 0 4-1.791 4-4v-4H0v4c0 2.209 1.791 4 4 4z"/>
    </symbol>

    <symbol id="be" viewBox="0 0 36 36">
      <path fill="#141414" d="M4 5C1.791 5 0 6.791 0 9v18c0 2.209 1.791 4 4 4h8V5H4z"/>
      <path fill="#FEE833" d="M12 5h12v26H12z"/>
      <path fill="#EE232C" d="M32 5h-8v26h8c2.209 0 4-1.791 4-4V9c0-2.209-1.791-4-4-4z"/>
    </symbol>

    <symbol id="ch" viewBox="0 0 36 36">
      <path fill="#D32D27" d="M31 27c0 2.209-1.791 4-4 4H9c-2.209 0-4-1.791-4-4V9c0-2.209 1.791-4 4-4h18c2.209 0 4 1.791 4 4v18z"/>
      <path fill="#FFF" d="M25 16.063h-5v-5h-4v5h-5V20h5v5.063h4V20h5z"/>
    </symbol>

    <symbol id="de" viewBox="0 0 36 36">
      <path fill="#FFCD05" d="M0 27c0 2.209 1.791 4 4 4h28c2.209 0 4-1.791 4-4v-4H0v4z"/>
      <path fill="#ED1F24" d="M0 14h36v9H0z"/>
      <path fill="#141414" d="M32 5H4C1.791 5 0 6.791 0 9v5h36V9c0-2.209-1.791-4-4-4z"/>
    </symbol>

    <symbol id="dk" viewBox="0 0 36 36">
      <path fill="#C60C30" d="M32 5H15v11h21V9c0-2.209-1.791-4-4-4zM15 31h17c2.209 0 4-1.791 4-4.5V20H15v11zM0 20v6.5C0 29.209 1.791 31 4 31h7V20H0zM11 5H4C1.791 5 0 6.791 0 9v7h11V5z"/>
      <path fill="#EEE" d="M15 5h-4v11H0v4h11v11h4V20h21v-4H15z"/>
    </symbol>

    <symbol id="it" viewBox="0 0 36 36">
      <path fill="#CE2B37" d="M36 27c0 2.209-1.791 4-4 4h-8V5h8c2.209 0 4 1.791 4 4v18z"/>
      <path fill="#009246" d="M4 5C1.791 5 0 6.791 0 9v18c0 2.209 1.791 4 4 4h8V5H4z"/>
      <path fill="#EEE" d="M12 5h12v26H12z"/>
    </symbol>

    <symbol id="nl" viewBox="0 0 36 36">
      <path fill="#EEE" d="M0 14h36v8H0z"/>
      <path fill="#AE1F28" d="M32 5H4C1.791 5 0 6.791 0 9v5h36V9c0-2.209-1.791-4-4-4z"/>
      <path fill="#20478B" d="M4 31h28c2.209 0 4-1.791 4-4v-5H0v5c0 2.209 1.791 4 4 4z"/>
    </symbol>

    <symbol id="uk" viewBox="0 0 36 36">
      <path fill="#00247D" d="M0 9.059V13h5.628zM4.664 31H13v-5.837zM23 25.164V31h8.335zM0 23v3.941L5.63 23zM31.337 5H23v5.837zM36 26.942V23h-5.631zM36 13V9.059L30.371 13zM13 5H4.664L13 10.837z"/>
      <path fill="#CF1B2B" d="M25.14 23l9.712 6.801c.471-.479.808-1.082.99-1.749L28.627 23H25.14zM13 23h-2.141l-9.711 6.8c.521.53 1.189.909 1.938 1.085L13 23.943V23zm10-10h2.141l9.711-6.8c-.521-.53-1.188-.909-1.937-1.085L23 12.057V13zm-12.141 0L1.148 6.2C.677 6.68.34 7.282.157 7.949L7.372 13h3.487z"/>
      <path fill="#EEE" d="M36 21H21v10h2v-5.836L31.335 31H32c1.117 0 2.126-.461 2.852-1.199L25.14 23h3.487l7.215 5.052c.093-.337.158-.686.158-1.052v-.058L30.369 23H36v-2zM0 21v2h5.63L0 26.941V27c0 1.091.439 2.078 1.148 2.8l9.711-6.8H13v.943l-9.914 6.941c.294.07.598.116.914.116h.664L13 25.163V31h2V21H0zM36 9c0-1.091-.439-2.078-1.148-2.8L25.141 13H23v-.943l9.915-6.942C32.62 5.046 32.316 5 32 5h-.663L23 10.837V5h-2v10h15v-2h-5.629L36 9.059V9zM13 5v5.837L4.664 5H4c-1.118 0-2.126.461-2.852 1.2l9.711 6.8H7.372L.157 7.949C.065 8.286 0 8.634 0 9v.059L5.628 13H0v2h15V5h-2z"/>
      <path fill="#CF1B2B" d="M21 15V5h-6v10H0v6h15v10h6V21h15v-6z"/>
    </symbol>

  </defs>
</svg>
